:FULLY-SPECIFIED
:FORCE-ALL-JOINTS-BE-3DOF
:DEGREES
340
root 8.17334 16.0429 -20.5092 11.6793 27.0772 5.55639
lfemur -10.4819 19.5508 -11.7062
ltibia 39.6093 0 0
lfoot 3.13998 28.0504 0
ltoes -37.2216 0 0
rfemur -47.5495 -12.6218 4.00656
rtibia 55.914 0 0
rfoot 4.7826 -22.2134 0
rtoes 10.916 0 0
lowerback -0.811496 -2.07033 -2.05981
upperback 1.79449 -2.68919 -0.165735
thorax 2.37429 -1.38002 0.906207
lowerneck -5.07668 -9.28948 -0.605209
upperneck -2.87939 -12.3229 6.63485
head 0.425278 -6.12653 1.88974
lclavicle -3.16312e-14 1.27982e-14 0
lhumerus -48.3932 -36.5846 110.712
lradius 58.1037 0 0
lwrist 19.3423 0 0
lhand 7.26672 12.9592 0
lfingers 7.12502 0 0
lthumb 32.531 40.073 0
rclavicle -3.16312e-14 1.27982e-14 0
rhumerus -18.83 20.2005 -68.8612
rradius 85.8166 0 0
rwrist 3.88865 0 0
rhand 22.0152 -5.75284 0
rfingers 7.12502 0 0
rthumb 46.3763 -748.36 0
341
root 8.10339 16.0655 -20.3529 11.6917 27.1156 5.56221
lfemur -10.2311 19.5283 -11.6291
ltibia 39.5124 0 0
lfoot 3.43397 28.5646 0
ltoes -38.3044 0 0
rfemur -47.5627 -12.6269 3.65396
rtibia 55.9478 0 0
rfoot 4.90478 -22.6033 0
rtoes 11.1193 0 0
lowerback -0.939353 -2.09825 -2.05227
upperback 1.76352 -2.72219 -0.131231
thorax 2.41252 -1.39727 0.935351
lowerneck -5.06931 -9.3143 -0.642281
upperneck -2.86127 -12.3558 6.62415
head 0.429584 -6.14197 1.89071
lclavicle -3.18402e-14 1.30359e-14 0
lhumerus -48.4383 -36.5074 110.839
lradius 58.1141 0 0
lwrist 19.3559 0 0
lhand 7.34778 13.044 0
lfingers 7.12502 0 0
lthumb 32.61 40.1611 0
rclavicle -3.18402e-14 1.30359e-14 0
rhumerus -18.8751 20.1638 -68.8754
rradius 86.0978 0 0
rwrist 4.06479 0 0
rhand 22.3476 -5.62181 0
rfingers 7.12502 0 0
rthumb 46.6905 -748.145 0
342
root 8.03343 16.0881 -20.1966 11.7152 27.3475 5.62139
lfemur -9.94761 19.5172 -11.594
ltibia 39.3463 0 0
lfoot 3.65772 29.0457 0
ltoes -39.2644 0 0
rfemur -47.6813 -12.6597 3.29188
rtibia 56.0397 0 0
rfoot 5.10892 -22.973 0
rtoes 11.2328 0 0
lowerback -1.04595 -2.13465 -2.07066
upperback 1.74097 -2.76808 -0.115399
thorax 2.44787 -1.42094 0.960683
lowerneck -5.05258 -9.36604 -0.680662
upperneck -2.86568 -12.4229 6.63686
head 0.427469 -6.17504 1.89903
lclavicle -3.2159e-14 1.32447e-14 0
lhumerus -48.5014 -36.527 110.989
lradius 58.1324 0 0
lwrist 19.3778 0 0
lhand 7.51562 13.1411 0
lfingers 7.12502 0 0
lthumb 32.7719 40.248 0
rclavicle -3.2159e-14 1.32447e-14 0
rhumerus -18.8031 20.1877 -68.7612
rradius 86.3847 0 0
rwrist 4.16203 0 0
rhand 22.7787 -5.43401 0
rfingers 7.12502 0 0
rthumb 47.0997 -747.867 0
343
root 7.96347 16.1107 -20.0403 11.742 27.6987 5.71309
lfemur -9.65088 19.5128 -11.5818
ltibia 39.1643 0 0
lfoot 3.81816 29.4457 0
ltoes -40.0375 0 0
rfemur -47.8695 -12.7192 2.9603
rtibia 56.1659 0 0
rfoot 5.35183 -23.2888 0
rtoes 11.2666 0 0
lowerback -1.12869 -2.17453 -2.1072
upperback 1.72621 -2.8201 -0.113201
thorax 2.47811 -1.4476 0.982985
lowerneck -5.03139 -9.43298 -0.718446
upperneck -2.88414 -12.5093 6.66574
head 0.421611 -6.21805 1.91229
lclavicle -3.25237e-14 1.34229e-14 0
lhumerus -48.5733 -36.6105 111.147
lradius 58.1559 0 0
lwrist 19.402 0 0
lhand 7.73654 13.2409 0
lfingers 7.12502 0 0
lthumb 32.9844 40.3287 0
rclavicle -3.25237e-14 1.34229e-14 0
rhumerus -18.6604 20.2439 -68.5705
rradius 86.6576 0 0
rwrist 4.18976 0 0
rhand 23.2139 -5.24132 0
rfingers 7.12502 0 0
rthumb 47.5134 -747.59 0
344
root 7.89352 16.1333 -19.884 11.7645 28.0953 5.81651
lfemur -9.36036 19.5104 -11.5738
ltibia 39.0201 0 0
lfoot 3.92225 29.7163 0
ltoes -40.5595 0 0
rfemur -48.0914 -12.8045 2.69915
rtibia 56.3029 0 0
rfoot 5.59032 -23.5173 0
rtoes 11.2309 0 0
lowerback -1.18499 -2.2129 -2.15408
upperback 1.71863 -2.87147 -0.119599
thorax 2.501 -1.47381 1.00304
lowerneck -5.01067 -9.50344 -0.753729
upperneck -2.90812 -12.5998 6.70359
head 0.414685 -6.26333 1.92809
lclavicle -3.28703e-14 1.35689e-14 0
lhumerus -48.6453 -36.7253 111.294
lradius 58.1821 0 0
lwrist 19.4224 0 0
lhand 7.97681 13.3337 0
lfingers 7.12502 0 0
lthumb 33.2153 40.3985 0
rclavicle -3.28703e-14 1.35689e-14 0
rhumerus -18.4932 20.3043 -68.3549
rradius 86.8972 0 0
rwrist 4.15738 0 0
rhand 23.5584 -5.09565 0
rfingers 7.12502 0 0
rthumb 47.841 -747.378 0
345
root 7.82356 16.1558 -19.7277 11.775 28.4635 5.91082
lfemur -9.0955 19.5052 -11.5508
ltibia 38.9672 0 0
lfoot 3.97693 29.8095 0
ltoes -40.7662 0 0
rfemur -48.311 -12.9144 2.54841
rtibia 56.427 0 0
rfoot 5.78121 -23.6249 0
rtoes 11.1361 0 0
lowerback -1.21226 -2.24477 -2.20354
upperback 1.71759 -2.91541 -0.129555
thorax 2.5143 -1.49613 1.02164
lowerneck -4.99534 -9.56569 -0.784605
upperneck -2.92912 -12.6794 6.7432
head 0.40937 -6.30322 1.94401
lclavicle -3.3135e-14 1.36811e-14 0
lhumerus -48.7084 -36.8387 111.416
lradius 58.2081 0 0
lwrist 19.4329 0 0
lhand 8.20272 13.4101 0
lfingers 7.12502 0 0
lthumb 33.4323 40.4524 0
rclavicle -3.3135e-14 1.36811e-14 0
rhumerus -18.3479 20.3405 -68.1663
rradius 87.084 0 0
rwrist 4.07428 0 0
rhand 23.7176 -5.0489 0
rfingers 7.12502 0 0
rthumb 47.9919 -747.295 0
346
root 7.7536 16.1784 -19.5714 11.7659 28.7293 5.97522
lfemur -8.87573 19.4926 -11.4939
ltibia 39.0592 0 0
lfoot 3.98917 29.6772 0
ltoes -40.5934 0 0
rfemur -48.4925 -13.0482 2.54801
rtibia 56.5147 0 0
rfoot 5.88131 -23.5779 0
rtoes 10.9922 0 0
lowerback -1.20791 -2.26513 -2.24776
upperback 1.72247 -2.94515 -0.138031
thorax 2.51577 -1.51115 1.03955
lowerneck -4.99031 -9.60806 -0.809168
upperneck -2.93865 -12.7331 6.77735
head 0.408341 -6.33004 1.95763
lclavicle -3.32538e-14 1.37579e-14 0
lhumerus -48.7536 -36.9179 111.495
lradius 58.2315 0 0
lwrist 19.4274 0 0
lhand 8.38057 13.4604 0
lfingers 7.12502 0 0
lthumb 33.6031 40.4858 0
rclavicle -3.32538e-14 1.37579e-14 0
rhumerus -18.2707 20.3244 -68.0563
rradius 87.1984 0 0
rwrist 3.94986 0 0
rhand 23.5967 -5.15296 0
rfingers 7.12502 0 0
rthumb 47.8755 -747.404 0
347
root 7.68365 16.201 -19.4151 11.7295 28.8186 5.98888
lfemur -8.72051 19.4678 -11.3842
ltibia 39.3496 0 0
lfoot 3.96589 29.2712 0
ltoes -39.977 0 0
rfemur -48.6 -13.2047 2.73791
rtibia 56.5423 0 0
rfoot 5.84743 -23.3429 0
rtoes 10.8096 0 0
lowerback -1.16935 -2.26901 -2.27898
upperback 1.73266 -2.95392 -0.13999
thorax 2.50317 -1.51541 1.05757
lowerneck -5.00051 -9.61882 -0.825513
upperneck -2.92818 -12.7459 6.79884
head 0.414275 -6.33611 1.96655
lclavicle -3.31627e-14 1.37976e-14 0
lhumerus -48.7721 -36.9302 111.516
lradius 58.2496 0 0
lwrist 19.3998 0 0
lhand 8.47663 13.4751 0
lfingers 7.12502 0 0
lthumb 33.6955 40.4936 0
rclavicle -3.31627e-14 1.37976e-14 0
rhumerus -18.308 20.2277 -68.0766
rradius 87.221 0 0
rwrist 3.79353 0 0
rhand 23.101 -5.45973 0
rfingers 7.12502 0 0
rthumb 47.4012 -747.769 0
348
root 7.61369 16.2236 -19.2589 11.6581 28.6577 5.93099
lfemur -8.64929 19.4261 -11.2028
ltibia 39.8921 0 0
lfoot 3.91407 28.5434 0
ltoes -38.8529 0 0
rfemur -48.5975 -13.3831 3.15808
rtibia 56.4862 0 0
rfoot 5.6364 -22.8862 0
rtoes 10.5983 0 0
lowerback -1.09399 -2.2514 -2.28939
upperback 1.74751 -2.93493 -0.130392
thorax 2.47427 -1.5055 1.07648
lowerneck -5.03086 -9.58629 -0.831734
upperneck -2.88922 -12.7028 6.80044
head 0.429848 -6.31377 1.96835
lclavicle -3.27978e-14 1.37988e-14 0
lhumerus -48.7549 -36.8429 111.461
lradius 58.2597 0 0
lwrist 19.3441 0 0
lhand 8.4572 13.4446 0
lfingers 7.12502 0 0
lthumb 33.6772 40.471 0
rclavicle -3.27978e-14 1.37988e-14 0
rhumerus -18.5061 20.0221 -68.2792
rradius 87.1324 0 0
rwrist 3.61466 0 0
rhand 22.1359 -6.02111 0
rfingers 7.12502 0 0
rthumb 46.4784 -748.453 0
